<?xml version="1.0" encoding="utf-8"?>
<!-- Svg Vector Icons : http://www.sfont.cn -->
<!DOCTYPE svg PUBLIC "-//W3C//DTD SVG 1.1//EN" "http://www.w3.org/Graphics/SVG/1.1/DTD/svg11.dtd">
<svg version="1.1" xmlns="http://www.w3.org/2000/svg" xmlns:xlink="http://www.w3.org/1999/xlink" x="0px" y="0px" viewBox="0 0 1000 1000" enable-background="new 0 0 1000 1000" xml:space="preserve">
<metadata> Svg Vector Icons : http://www.sfont.cn </metadata>
<g><path fill="#30b7ff" d="M977.9,815.6L977.9,815.6L792.6,630.3c-15.3-15.3-38.3-13.8-53.6,0l-85.8,85.8c-33.7,33.7-76.6,3.1-157.8-62.8c-53.6-44.4-116.4-104.2-171.5-171.5c-38.3-47.5-70.5-96.5-36.8-131.7l85.8-85.8l0,0c16.8-15.3,16.8-38.3,0-53.6l0,0L181.5,20.7c-15.3-15.3-38.3-13.8-53.6,0l-84.2,85.8C8.4,150.9-69.7,362.3,267.2,708.4c355.3,364.5,585.1,286.4,624.9,245.1c0,0,85.8-84.2,85.8-85.8l0,0C993.2,852.4,994.8,829.4,977.9,815.6z"/></g>
</svg>